<?xml version="1.0" encoding="UTF-8"?> <svg xmlns="http://www.w3.org/2000/svg" width="46" height="67" viewBox="0 0 46 67" fill="none"> <path d="M22.9532 44.7394H45.0098V66.7894C42.1138 66.7898 39.2459 66.2199 36.5701 65.112C33.8943 64.0041 31.4629 62.3801 29.4148 60.3325C27.3666 58.285 25.7418 55.8542 24.6331 53.1787C23.5244 50.5032 22.9536 47.6355 22.9532 44.7394ZM0.896484 44.7394H22.9532C22.9529 47.6355 22.382 50.5032 21.2734 53.1787C20.1647 55.8542 18.5399 58.2851 16.4918 60.3327C14.4436 62.3802 12.0122 64.0043 9.33634 65.1121C6.6605 66.22 3.79259 66.7899 0.896484 66.7894V44.7394ZM0.896484 22.6901H21.9152C16.2522 22.424 10.9092 19.9873 6.99536 15.8859C3.08151 11.7845 0.897432 6.33327 0.896484 0.664062H45.0098C45.0091 6.33332 42.825 11.7846 38.9111 15.8861C34.9972 19.9875 29.6542 22.4241 23.9912 22.6901H45.0098C45.0098 28.5399 42.686 34.1502 38.5496 38.2866C34.4131 42.423 28.803 44.7467 22.9532 44.7467C17.1034 44.7467 11.4932 42.423 7.35677 38.2866C3.22034 34.1502 0.896484 28.5399 0.896484 22.6901Z" fill="#FF866E"></path> </svg> 