<?xml version="1.0" encoding="UTF-8"?> <svg xmlns="http://www.w3.org/2000/svg" width="174" height="55" viewBox="0 0 174 55" fill="none"> <path d="M105.992 54.6301L105.922 54.6221L105.751 54.5774C105.336 54.4744 104.928 54.3484 104.527 54.2001C103.099 53.7586 101.821 52.9284 100.838 51.8022C99.8544 50.676 99.2038 49.2983 98.9587 47.8234L98.9767 47.8441L98.8301 46.5774L98.8194 46.5074C98.8111 46.4634 98.806 46.4188 98.8041 46.3741V13.6494H106.567V17.8681L107.337 16.5501C108.04 15.4187 109.024 14.4898 110.195 13.8547C111.707 13.0553 113.404 12.6681 115.113 12.7321C115.497 12.7321 115.895 12.7467 116.304 12.7747C116.846 12.8102 117.383 12.8954 117.909 13.0294C120.351 13.6377 122.566 14.9355 124.291 16.7681C125.53 18.109 126.503 19.6732 127.157 21.3774C128.569 25.2101 128.569 29.4206 127.157 33.2534C126.503 34.9574 125.53 36.5214 124.291 37.8621C122.563 39.7001 120.34 40.9996 117.891 41.6041C117.367 41.7368 116.833 41.821 116.294 41.8554C115.888 41.8834 115.494 41.8961 115.113 41.8961C113.405 41.9602 111.709 41.5735 110.197 40.7747C109.026 40.1402 108.041 39.2114 107.339 38.0801L106.569 36.7614V54.6674C106.517 54.6738 106.465 54.6769 106.413 54.6767C106.272 54.674 106.131 54.6584 105.992 54.6301ZM110.466 20.4621C109.604 20.8026 108.818 21.3112 108.153 21.9581C107.479 22.6184 106.942 23.4057 106.573 24.2747C106.174 25.2373 105.977 26.2712 105.994 27.3127C105.98 28.3632 106.176 29.4059 106.571 30.3794C106.931 31.2567 107.472 32.0485 108.157 32.7034C108.826 33.3347 109.609 33.8325 110.465 34.1701C112.239 34.8586 114.207 34.8586 115.981 34.1701C116.836 33.8338 117.619 33.3373 118.288 32.7074C118.974 32.0525 119.515 31.2604 119.875 30.3827C120.27 29.4093 120.466 28.3665 120.451 27.3161C120.468 26.2748 120.271 25.2413 119.873 24.2787C119.505 23.4096 118.967 22.622 118.293 21.9614C117.629 21.3146 116.843 20.8061 115.981 20.4654C114.207 19.775 112.238 19.775 110.464 20.4654L110.466 20.4621ZM87.5101 37.8941L87.2381 37.0941L86.7667 37.5961C86.426 37.9623 86.0459 38.2898 85.6334 38.5727C85.3581 38.7794 85.0787 38.9681 84.7921 39.1447L84.7467 39.1741C83.8929 39.6898 83.0015 40.1406 82.0801 40.5227L81.5094 40.7354C80.4616 41.1466 79.3476 41.3632 78.2221 41.3747C76.3905 41.3923 74.5749 41.0321 72.8887 40.3167C71.3026 39.6389 69.8769 38.6349 68.7041 37.3701C67.5145 36.0669 66.5805 34.5517 65.9507 32.9034C65.2717 31.1169 64.9325 29.2192 64.9507 27.3081C64.9389 25.442 65.2981 23.5921 66.0074 21.8661C66.6891 20.2105 67.6706 18.6951 68.9027 17.3961C70.1161 16.1224 71.5601 15.0906 73.1581 14.3554C74.7837 13.6122 76.552 13.2327 78.3394 13.2434C79.646 13.2517 80.9353 13.5429 82.1187 14.0967C83.3229 14.6407 84.4671 15.3088 85.5327 16.0901L86.1927 16.5801V13.3614H93.9994L93.9821 31.2947L94.0001 31.2914V43.1147C93.6915 43.204 93.372 43.25 93.0507 43.2514C89.6781 43.2501 87.5327 37.9474 87.5094 37.8934L87.5101 37.8941ZM78.3954 19.6367C78.1657 19.664 77.9388 19.7115 77.7174 19.7787C76.3741 20.177 75.1598 20.9231 74.1974 21.9414C73.511 22.6737 72.9606 23.5226 72.5721 24.4481C71.7649 26.4112 71.7649 28.6136 72.5721 30.5767C72.9609 31.5023 73.5113 32.3513 74.1974 33.0841C75.1589 34.1024 76.3726 34.8483 77.7154 35.2461C77.938 35.3131 78.1659 35.3608 78.3967 35.3887C78.7569 35.4325 79.1193 35.4547 79.4821 35.4554C80.5125 35.4681 81.5324 35.2482 82.4661 34.8121C83.3484 34.3903 84.1407 33.8016 84.7994 33.0787C85.4678 32.3447 85.9913 31.4908 86.3421 30.5621C87.0652 28.5926 87.0652 26.4302 86.3421 24.4607C85.9906 23.5323 85.4672 22.6786 84.7994 21.9441C84.141 21.2209 83.3486 20.6323 82.4661 20.2107C81.5324 19.7738 80.5121 19.5534 79.4814 19.5661C79.1183 19.5681 78.7557 19.5917 78.3954 19.6367ZM152.747 40.8014C151.005 40.1123 149.416 39.0878 148.069 37.7861C146.742 36.4819 145.701 34.9152 145.014 33.1861C143.565 29.402 143.565 25.2161 145.014 21.4321C145.702 19.703 146.742 18.1362 148.069 16.8321C149.416 15.5303 151.005 14.5055 152.747 13.8161C156.537 12.3617 160.732 12.3617 164.522 13.8161C166.263 14.5058 167.852 15.5305 169.199 16.8321C170.526 18.1366 171.566 19.7032 172.254 21.4321C173.702 25.2163 173.702 29.4018 172.254 33.1861C171.566 34.9151 170.526 36.4817 169.199 37.7861C167.852 39.0879 166.263 40.1126 164.522 40.8021C160.732 42.2556 156.537 42.2556 152.747 40.8021V40.8014ZM155.984 20.4614C155.151 20.8091 154.395 21.3182 153.759 21.9594C153.103 22.6238 152.586 23.4125 152.238 24.2794C151.862 25.2445 151.676 26.2735 151.691 27.3094C151.678 28.3535 151.863 29.3907 152.237 30.3654C152.576 31.2406 153.096 32.0341 153.764 32.6934C154.404 33.3189 155.158 33.8167 155.985 34.1601C157.684 34.8513 159.586 34.8513 161.285 34.1601C162.111 33.8162 162.864 33.3185 163.504 32.6934C164.173 32.0344 164.693 31.2409 165.032 30.3654C165.406 29.3905 165.591 28.3534 165.577 27.3094C165.593 26.2736 165.408 25.2446 165.031 24.2794C164.683 23.4126 164.166 22.624 163.509 21.9594C162.542 20.9968 161.312 20.3412 159.973 20.0747C158.635 19.8082 157.247 19.9428 155.985 20.4614H155.984ZM44.7994 41.8527C44.267 41.8181 43.7388 41.7351 43.2214 41.6047C40.7655 41.0023 38.5367 39.7012 36.8047 37.8587C35.5656 36.5182 34.5927 34.9542 33.9381 33.2501C32.5252 29.4175 32.5252 25.2067 33.9381 21.3741C34.5928 19.6698 35.5656 18.1056 36.8047 16.7647C38.5325 14.928 40.7536 13.629 43.2014 13.0234C43.7203 12.8911 44.2503 12.8072 44.7847 12.7727C45.1976 12.7438 45.5976 12.7294 45.9847 12.7294C47.6941 12.6662 49.3901 13.0533 50.9027 13.8521C52.0727 14.4874 53.0572 15.4162 53.7594 16.5474L54.5301 17.8641V0.664062H62.2934V40.9767H55.1034V38.0787C54.3054 39.2597 53.1924 40.1934 51.8907 40.7741C50.0217 41.5551 48.01 41.9369 45.9847 41.8947C45.6034 41.8934 45.2094 41.8807 44.7994 41.8527ZM45.1141 20.4621C44.2517 20.8025 43.4655 21.3111 42.8014 21.9581C42.1271 22.6187 41.59 23.406 41.2207 24.2747C40.8234 25.2375 40.6269 26.2713 40.6434 27.3127C40.6283 28.3632 40.8242 29.406 41.2194 30.3794C41.5794 31.257 42.12 32.049 42.8061 32.7041C43.4751 33.3357 44.2587 33.8335 45.1147 34.1707C46.8887 34.8591 48.8561 34.8591 50.6301 34.1707C51.4852 33.8343 52.2683 33.3379 52.9374 32.7081C53.6229 32.0528 54.1634 31.2611 54.5241 30.3841C54.9189 29.4106 55.1148 28.3678 55.1001 27.3174C55.1164 26.2762 54.9199 25.2427 54.5227 24.2801C54.1534 23.411 53.616 22.6235 52.9414 21.9627C52.2774 21.3159 51.4915 20.8074 50.6294 20.4667C48.8556 19.7763 46.8872 19.7763 45.1134 20.4667L45.1141 20.4621ZM132.193 40.9747V13.6481H139.953V40.9747H132.193ZM132.273 5.16806C132.275 4.41707 132.5 3.68369 132.92 3.06054C133.339 2.43739 133.933 1.95241 134.628 1.66684C135.322 1.38127 136.086 1.30792 136.822 1.45604C137.558 1.60417 138.234 1.96713 138.764 2.4991C139.295 3.03107 139.655 3.70818 139.801 4.44494C139.946 5.18171 139.87 5.94507 139.582 6.63865C139.294 7.33224 138.807 7.92493 138.183 8.3419C137.558 8.75886 136.824 8.98139 136.073 8.9814C135.573 8.98061 135.078 8.88134 134.616 8.68926C134.155 8.49718 133.736 8.21605 133.383 7.86193C133.03 7.50781 132.75 7.08765 132.56 6.62542C132.369 6.1632 132.272 5.66799 132.273 5.16806Z" fill="#24364B"></path> <path d="M9.57693 42.1349L9.4796 36.7349C7.20502 36.7193 5.02311 35.8317 3.38363 34.255C1.74416 32.6782 0.772086 30.5326 0.667796 28.2604C0.563506 25.9881 1.33495 23.7625 2.8231 22.0422C4.31125 20.3219 6.40268 19.2381 8.66627 19.0142V19.0016L8.85893 18.9922C8.9596 18.9822 9.05893 18.9649 9.1596 18.9596V18.9762L9.47693 18.9596V36.6789H9.53227L16.6269 29.2369C17.0355 28.8084 17.2602 28.2371 17.253 27.645C17.2458 27.053 17.0072 26.4873 16.5883 26.0689L9.47893 18.9616L9.56227 18.9149C9.53427 18.9149 9.50627 18.9102 9.47893 18.9096L9.57693 13.4556C9.57682 13.3245 9.60285 13.1947 9.65348 13.0738C9.70411 12.953 9.77834 12.8434 9.87182 12.7515C9.9653 12.6596 10.0762 12.5873 10.1979 12.5388C10.3197 12.4903 10.4499 12.4665 10.5809 12.4689C10.6196 12.4689 10.6569 12.4689 10.6956 12.4749C11.7259 12.584 12.7424 12.7973 13.7296 13.1116L13.7569 13.1203C14.1863 13.2536 14.6083 13.4082 15.0236 13.5789C15.0809 13.6029 15.1363 13.6316 15.1936 13.6556C15.5036 13.7889 15.8149 13.9223 16.1149 14.0716C16.1149 14.0763 16.1149 14.0803 16.1109 14.0843C19.1166 15.559 21.5568 17.9772 23.0586 20.9694C24.5605 23.9616 25.0414 27.3632 24.4279 30.6545C23.8144 33.9458 22.1403 36.9457 19.6613 39.1959C17.1823 41.446 14.0347 42.8227 10.6996 43.1156C10.6615 43.1197 10.6232 43.1217 10.5849 43.1216C10.4535 43.1246 10.3229 43.1013 10.2006 43.0531C10.0783 43.0048 9.96695 42.9326 9.87302 42.8407C9.77909 42.7487 9.70451 42.6389 9.65366 42.5177C9.60281 42.3965 9.57672 42.2664 9.57693 42.1349ZM9.47893 36.6802V36.7349V36.6802Z" fill="#FF866E"></path> </svg> 