<?xml version="1.0" encoding="UTF-8"?> <svg xmlns="http://www.w3.org/2000/svg" width="62" height="79" viewBox="0 0 62 79" fill="none"> <path d="M23.276 75.7453L23.0307 62.0428C10.8553 61.7654 0.868008 51.9223 0.654008 39.8683C0.444008 28.1903 9.40134 18.3623 20.9747 17.0636V17.0363L21.4653 17.0122C21.7193 16.9888 21.9687 16.9455 22.2267 16.9301V16.9718L23.0327 16.9301V61.9041C23.0787 61.9041 23.1247 61.895 23.1733 61.893L41.182 43.005C42.2176 41.9172 42.787 40.4678 42.7685 38.966C42.7501 37.4642 42.1453 36.0293 41.0833 34.9673L23.028 16.9314L23.24 16.811C23.1687 16.807 23.0993 16.7987 23.028 16.7973L23.2753 2.95293C23.275 2.62021 23.3411 2.29106 23.4696 1.98418C23.5982 1.6773 23.7867 1.39894 24.0241 1.16582C24.2615 0.932701 24.5431 0.749727 24.8522 0.62676C25.1614 0.503792 25.492 0.443291 25.8247 0.449676C25.9213 0.449375 26.0179 0.454578 26.114 0.46465C28.7293 0.741725 31.3098 1.28283 33.816 2.07988C33.8393 2.08655 33.86 2.09666 33.8827 2.10332C34.9713 2.44732 36.044 2.83337 37.0907 3.26804C37.2373 3.3267 37.376 3.40136 37.5207 3.4627C38.3093 3.79603 39.0987 4.13404 39.86 4.51804L39.8473 4.54994C52.5393 10.9573 61.3473 23.9028 61.6093 38.6528C61.97 58.7595 46.3767 76.1468 26.1127 78.2348C26.0166 78.2453 25.92 78.2503 25.8233 78.2505C25.4907 78.2564 25.1603 78.196 24.8513 78.0727C24.5423 77.9494 24.261 77.7656 24.0238 77.5324C23.7866 77.2991 23.5983 77.0209 23.4699 76.714C23.3415 76.4071 23.2756 76.0779 23.276 75.7453ZM23.0287 61.9041V62.0428V61.9041Z" fill="white"></path> </svg> 