<?xml version="1.0" encoding="UTF-8"?> <svg xmlns="http://www.w3.org/2000/svg" width="31" height="40" viewBox="0 0 31 40" fill="none"> <path d="M11.7072 38.1002L11.5839 31.2068C8.6813 31.1842 5.89787 30.0494 3.80684 28.0362C1.71581 26.023 0.476392 23.2845 0.343866 20.3848C0.211341 17.4852 1.1958 14.645 3.09448 12.4494C4.99315 10.2539 7.66148 8.86998 10.5499 8.58275V8.57005L10.7966 8.55736C10.9246 8.54536 11.0506 8.52335 11.1799 8.51602V8.5375L11.5852 8.51602V31.1374L11.6559 31.1334L20.7133 21.6334C21.2345 21.0863 21.5211 20.3571 21.512 19.6015C21.5029 18.8459 21.1988 18.1238 20.6646 17.5894L11.5846 8.51683L11.6912 8.45677C11.6552 8.45677 11.6206 8.45013 11.5846 8.4488L11.7092 1.48607C11.709 1.31872 11.7422 1.15297 11.8068 0.998602C11.8715 0.844234 11.9663 0.704421 12.0856 0.587143C12.205 0.469866 12.3467 0.377532 12.5022 0.315659C12.6576 0.253786 12.8239 0.223599 12.9912 0.226792C13.0399 0.226792 13.0879 0.226783 13.1372 0.234116C14.4525 0.373209 15.7503 0.64549 17.0106 1.04678C17.0221 1.04996 17.0334 1.0538 17.0446 1.05817C17.5932 1.23217 18.1319 1.42547 18.6586 1.64281C18.7319 1.67347 18.8019 1.70946 18.8752 1.74079C19.2712 1.91079 19.6686 2.07882 20.0512 2.27416C20.0495 2.27937 20.0475 2.28445 20.0452 2.28945C23.8837 4.17164 27.0003 7.25891 28.9186 11.0795C30.8368 14.9001 31.4513 19.2438 30.668 23.4465C29.8846 27.6493 27.7466 31.4799 24.5808 34.3529C21.4149 37.2259 17.3954 38.9831 13.1366 39.356C13.0872 39.3607 13.0392 39.3635 12.9906 39.3635C12.8228 39.3669 12.656 39.3365 12.5001 39.2745C12.3442 39.2124 12.2023 39.1199 12.0827 39.0022C11.9631 38.8845 11.8683 38.744 11.8038 38.5891C11.7393 38.4342 11.7065 38.268 11.7072 38.1002ZM11.5826 31.1368V31.2034V31.1368Z" fill="#FF866E"></path> </svg> 