<?xml version="1.0" encoding="UTF-8"?> <svg xmlns="http://www.w3.org/2000/svg" width="66" height="66" viewBox="0 0 66 66" fill="none"> <path d="M16.9753 49.1816C16.9753 44.8572 18.6931 40.7099 21.751 37.652C24.8088 34.5942 28.9562 32.8763 33.2806 32.8763H0.669922C0.669922 28.5519 2.38779 24.4045 5.44564 21.3467C8.50348 18.2888 12.6508 16.571 16.9753 16.571C21.2997 16.571 25.447 18.2888 28.5049 21.3467C31.5627 24.4045 33.2806 28.5519 33.2806 32.8763V65.4863C28.9563 65.4863 24.809 63.7685 21.7512 60.7108C18.6934 57.6531 16.9754 53.506 16.9753 49.1816ZM33.2806 32.8763H65.8913C65.8913 37.2007 64.1734 41.3481 61.1156 44.4059C58.0577 47.4638 53.9104 49.1816 49.5859 49.1816C45.2615 49.1816 41.1142 47.4638 38.0563 44.4059C34.9985 41.3481 33.2806 37.2007 33.2806 32.8763ZM33.2806 0.265625C37.605 0.265625 41.7524 1.9835 44.8102 5.04134C47.8681 8.09918 49.5859 12.2465 49.5859 16.571C49.5859 20.8954 47.8681 25.0427 44.8102 28.1006C41.7524 31.1584 37.605 32.8763 33.2806 32.8763V0.265625Z" fill="#FF866E"></path> </svg> 