<?xml version="1.0" encoding="UTF-8"?> <svg xmlns="http://www.w3.org/2000/svg" width="38" height="39" viewBox="0 0 38 39" fill="none"> <path d="M19.0026 38.3294C29.3119 38.3294 37.6693 29.9721 37.6693 19.6628C37.6693 9.35344 29.3119 0.996094 19.0026 0.996094C8.69329 0.996094 0.335938 9.35344 0.335938 19.6628C0.335938 29.9721 8.69329 38.3294 19.0026 38.3294Z" fill="#FF866E"></path> <path d="M25.2146 15.7963C25.2146 15.5731 25.1253 15.3499 24.9646 15.1892L23.7503 13.9749C23.5896 13.8142 23.3664 13.7249 23.1431 13.7249C22.9199 13.7249 22.6967 13.8142 22.536 13.9749L16.6789 19.841L14.0539 17.207C13.8931 17.0463 13.6699 16.957 13.4467 16.957C13.2235 16.957 13.0003 17.0463 12.8396 17.207L11.6253 18.4213C11.4646 18.582 11.3753 18.8052 11.3753 19.0285C11.3753 19.2517 11.4646 19.4749 11.6253 19.6356L14.8574 22.8677L16.0717 24.082C16.2324 24.2427 16.4556 24.332 16.6789 24.332C16.9021 24.332 17.1253 24.2427 17.286 24.082L18.5003 22.8677L24.9646 16.4035C25.1253 16.2427 25.2146 16.0195 25.2146 15.7963Z" fill="white"></path> </svg> 