<?xml version="1.0" encoding="UTF-8"?> <svg xmlns="http://www.w3.org/2000/svg" width="132" height="42" viewBox="0 0 132 42" fill="none"> <path d="M80.4667 41.6375L80.4141 41.6322L80.2808 41.5981C79.9646 41.5199 79.653 41.4242 79.3474 41.3115C78.2606 40.9758 77.2887 40.3441 76.5406 39.4873C75.7924 38.6305 75.2976 37.5823 75.1114 36.4601L75.1254 36.4748L75.0141 35.5135L75.0055 35.4601C74.9988 35.426 74.9947 35.3915 74.9934 35.3568V10.4601H80.8994V13.6668L81.4855 12.6668C82.0199 11.8063 82.7691 11.0999 83.6595 10.6169C84.8101 10.0085 86.1008 9.71393 87.4015 9.76286C87.6935 9.76286 87.9962 9.77417 88.3075 9.79484C88.7194 9.82216 89.128 9.88711 89.5281 9.98885C91.386 10.4516 93.0714 11.4391 94.3834 12.8335C95.326 13.8536 96.066 15.0436 96.5641 16.3402C97.6383 19.2559 97.6383 22.4591 96.5641 25.3748C96.066 26.6714 95.326 27.8614 94.3834 28.8815C93.0685 30.2803 91.3773 31.2691 89.5135 31.7288C89.1151 31.8301 88.7083 31.8941 88.2981 31.9201C87.9888 31.9414 87.6894 31.9515 87.4001 31.9515C86.0999 32.0005 84.8098 31.7062 83.6595 31.0981C82.7687 30.6157 82.0193 29.9091 81.4855 29.0482L80.8994 28.0482V41.6668C80.8605 41.6717 80.8213 41.6741 80.7821 41.6742C80.6761 41.6717 80.5705 41.6595 80.4667 41.6375ZM83.8668 15.6428C83.2107 15.9021 82.6127 16.2891 82.1075 16.7815C81.5953 17.2838 81.1875 17.8824 80.9074 18.5428C80.6044 19.2756 80.4547 20.0626 80.4675 20.8555C80.4561 21.6548 80.6053 22.4482 80.9061 23.1888C81.1803 23.8564 81.5916 24.459 82.1135 24.9575C82.6226 25.4366 83.2183 25.8141 83.8688 26.0701C85.2197 26.5945 86.7179 26.5945 88.0688 26.0701C88.7191 25.8141 89.3146 25.4365 89.8234 24.9575C90.3455 24.459 90.7569 23.8561 91.0308 23.1882C91.3314 22.4486 91.4807 21.6564 91.4701 20.8582C91.4823 20.0656 91.3326 19.2788 91.0301 18.5461C90.75 17.8855 90.3422 17.2868 89.8301 16.7842C89.3246 16.2922 88.7266 15.9051 88.0708 15.6455C86.7199 15.1208 85.2216 15.1208 83.8708 15.6455L83.8668 15.6428ZM66.4001 28.9061L66.1935 28.2982L65.8355 28.6802C65.5767 28.959 65.2878 29.2083 64.9742 29.4235C64.7648 29.5802 64.5521 29.7242 64.3341 29.8589L64.3001 29.8815C63.6509 30.273 62.9735 30.6158 62.2735 30.9069L61.8388 31.0688C61.0419 31.3822 60.1944 31.5473 59.3381 31.5562C57.9445 31.5694 56.5631 31.2953 55.2801 30.7508C54.0737 30.235 52.9891 29.4713 52.0968 28.5094C51.1918 27.5173 50.4813 26.364 50.0021 25.1095C49.4849 23.7505 49.2262 22.3069 49.2395 20.8529C49.2304 19.4331 49.5034 18.0256 50.0428 16.7122C50.5608 15.4532 51.3067 14.3006 52.2428 13.3122C53.1656 12.3429 54.2642 11.5579 55.4801 10.9989C56.7167 10.4328 58.0622 10.1438 59.4222 10.1522C60.4162 10.1589 61.397 10.3804 62.2975 10.8015C63.2144 11.2152 64.0857 11.7232 64.8974 12.3175L65.3994 12.6908V10.2395H71.3381L71.3248 23.8815H71.3388V32.8774C71.1039 32.9454 70.8606 32.9806 70.6161 32.9821C68.0527 32.9808 66.4188 28.9461 66.4001 28.9054V28.9061ZM59.4667 15.0168C59.2921 15.0368 59.1196 15.0728 58.9515 15.1242C57.9293 15.4273 57.0053 15.9949 56.2728 16.7695C55.7501 17.3264 55.3312 17.9724 55.0361 18.6768C54.4216 20.1703 54.4216 21.846 55.0361 23.3395C55.3316 24.0438 55.7504 24.6897 56.2728 25.2468C57.0042 26.0216 57.9273 26.5891 58.9488 26.8921C59.1182 26.943 59.2918 26.9792 59.4675 27.0002C59.7414 27.0333 60.0169 27.0502 60.2928 27.0508C61.0755 27.06 61.8502 26.8928 62.5594 26.5615C63.2302 26.2407 63.8326 25.7931 64.3334 25.2435C64.842 24.6854 65.2402 24.0359 65.5068 23.3295C66.057 21.8311 66.057 20.1859 65.5068 18.6875C65.24 17.9811 64.8419 17.3317 64.3334 16.7735C63.8324 16.2243 63.2301 15.7769 62.5594 15.4561C61.8491 15.1239 61.0729 14.9564 60.2888 14.9661C60.014 14.9661 59.7395 14.9829 59.4667 15.0162V15.0168ZM116.032 31.1195C114.708 30.5944 113.499 29.8151 112.473 28.8255C111.464 27.8332 110.673 26.6414 110.149 25.3262C109.047 22.4472 109.047 19.2624 110.149 16.3835C110.673 15.0684 111.464 13.8769 112.473 12.8848C113.498 11.8946 114.707 11.1148 116.032 10.5895C118.916 9.48394 122.107 9.48394 124.991 10.5895C126.316 11.1149 127.524 11.8947 128.549 12.8848C129.558 13.8772 130.35 15.0686 130.873 16.3835C131.975 19.2626 131.975 22.4471 130.873 25.3262C130.35 26.6411 129.558 27.8326 128.549 28.8249C127.525 29.8152 126.316 30.5948 124.991 31.1195C122.107 32.2258 118.916 32.2258 116.032 31.1195ZM118.499 15.6455C117.865 15.9098 117.29 16.297 116.806 16.7848C116.307 17.2904 115.913 17.8905 115.648 18.5501C115.361 19.2846 115.22 20.0678 115.232 20.8562C115.222 21.6502 115.363 22.4389 115.647 23.1802C115.905 23.8463 116.301 24.45 116.809 24.9515C117.296 25.4268 117.869 25.8051 118.498 26.0662C119.79 26.5925 121.237 26.5925 122.529 26.0662C123.158 25.8051 123.731 25.4268 124.218 24.9515C124.727 24.45 125.123 23.8463 125.381 23.1802C125.665 22.4388 125.806 21.6502 125.795 20.8562C125.807 20.0679 125.666 19.2847 125.38 18.5501C125.115 17.8907 124.721 17.2906 124.222 16.7848C123.486 16.0529 122.55 15.5543 121.532 15.3516C120.513 15.149 119.458 15.2512 118.497 15.6455H118.499ZM33.9121 31.9175C33.5072 31.8916 33.1055 31.8285 32.7121 31.7288C30.8436 31.2709 29.1479 30.2812 27.8301 28.8796C26.8873 27.8597 26.1474 26.6695 25.6501 25.3728C24.575 22.4572 24.575 19.2537 25.6501 16.3381C26.1474 15.0414 26.8873 13.8513 27.8301 12.8315C29.1443 11.4335 30.8343 10.4448 32.6968 9.98413C33.0917 9.8839 33.4949 9.82007 33.9015 9.79346C34.2155 9.77279 34.5188 9.76082 34.8134 9.76082C36.1139 9.71239 37.4042 10.0069 38.5548 10.6148C39.4452 11.0978 40.1945 11.8043 40.7288 12.6648L41.3148 13.6648V0.578125H47.2215V31.2448H41.7508V29.0395C41.1437 29.938 40.297 30.6484 39.3068 31.0902C37.885 31.6843 36.3547 31.9748 34.8141 31.9429C34.5207 31.9482 34.2214 31.9382 33.9114 31.9168L33.9121 31.9175ZM34.1515 15.6428C33.4953 15.902 32.8973 16.289 32.3921 16.7815C31.8802 17.284 31.4724 17.8825 31.1921 18.5428C30.8898 19.2758 30.7403 20.0627 30.7528 20.8555C30.7416 21.6537 30.8907 22.446 31.1914 23.1855C31.4653 23.8534 31.8766 24.4563 32.3988 24.9548C32.908 25.434 33.504 25.8116 34.1548 26.0675C35.5045 26.5911 37.0011 26.5911 38.3508 26.0675C39.0013 25.8116 39.5971 25.434 40.1062 24.9548C40.6278 24.456 41.0392 23.8535 41.3141 23.1862C41.6144 22.4455 41.7634 21.6521 41.7521 20.8529C41.7645 20.0603 41.6149 19.2736 41.3128 18.5409C41.0323 17.8805 40.6245 17.2817 40.1127 16.7788C39.6074 16.2866 39.0094 15.8996 38.3535 15.6401C37.0036 15.1163 35.5066 15.1163 34.1568 15.6401L34.1515 15.6428ZM100.394 31.2469V10.4601H106.301V31.2469H100.394ZM100.454 4.00684C100.456 3.4349 100.626 2.87621 100.945 2.40137C101.264 1.92653 101.716 1.55681 102.245 1.33895C102.774 1.12108 103.356 1.06486 103.916 1.17733C104.477 1.28979 104.992 1.56594 105.396 1.97087C105.8 2.3758 106.075 2.89134 106.186 3.45239C106.297 4.01344 106.239 4.59479 106.02 5.12305C105.801 5.65131 105.43 6.10281 104.954 6.42041C104.478 6.73801 103.919 6.90747 103.347 6.90747C102.967 6.90712 102.59 6.83185 102.239 6.68587C101.887 6.53989 101.568 6.32609 101.3 6.05672C101.031 5.78735 100.818 5.46769 100.673 5.11597C100.527 4.76424 100.453 4.38734 100.453 4.00684H100.454Z" fill="white"></path> <path d="M7.11364 32.1312L7.03902 28.0233C5.30923 28.0098 3.65047 27.3334 2.40441 26.1335C1.15835 24.9337 0.419883 23.3017 0.341018 21.5736C0.262152 19.8456 0.848918 18.1531 1.9805 16.8447C3.11209 15.5363 4.70234 14.7117 6.4237 14.5406V14.5326L6.57035 14.5253C6.64701 14.5173 6.72236 14.5046 6.79903 14.5006V14.5126L7.04032 14.5006V27.9807H7.08304L12.483 22.3193C12.7934 21.9932 12.964 21.5587 12.9587 21.1085C12.9533 20.6583 12.7724 20.2279 12.4544 19.9092L7.043 14.5033L7.10965 14.4673C7.08832 14.4673 7.067 14.464 7.043 14.4626L7.11771 10.3139C7.11743 10.2141 7.13704 10.1153 7.17549 10.0232C7.21394 9.93106 7.27042 9.84756 7.34159 9.77757C7.41276 9.70758 7.49722 9.65245 7.58996 9.61554C7.68271 9.57863 7.78191 9.56069 7.88171 9.56264C7.91067 9.56244 7.93961 9.56397 7.96838 9.56728C8.7521 9.65017 9.52533 9.8123 10.2763 10.0513C10.2834 10.0531 10.2903 10.0556 10.297 10.0586C10.6237 10.1619 10.945 10.2773 11.259 10.4066C11.303 10.4253 11.345 10.4466 11.3884 10.4653C11.625 10.566 11.861 10.6653 12.089 10.7813C12.0881 10.7845 12.0869 10.7875 12.0856 10.7906C14.3725 11.9125 16.2292 13.7522 17.3719 16.0287C18.5147 18.3052 18.8807 20.8933 18.4139 23.3974C17.9472 25.9015 16.6735 28.1839 14.7874 29.8959C12.9013 31.6079 10.5065 32.6553 7.96903 32.878C7.94026 32.8813 7.91132 32.8828 7.88236 32.8826C7.7822 32.885 7.68256 32.8675 7.58931 32.8308C7.49606 32.7941 7.41104 32.7392 7.33939 32.6692C7.26774 32.5991 7.21085 32.5155 7.17207 32.4231C7.1333 32.3307 7.11343 32.2314 7.11364 32.1312ZM7.03902 27.9813V28.0233V27.9813Z" fill="#FF866E"></path> </svg> 